<?xml version="1.0" standalone="no"?>
<!DOCTYPE svg PUBLIC "-//W3C//DTD SVG 20010904//EN"
 "http://www.w3.org/TR/2001/REC-SVG-20010904/DTD/svg10.dtd">
<svg version="1.0" xmlns="http://www.w3.org/2000/svg"
 width="254.000000pt" height="120.000000pt" viewBox="0 0 254.000000 120.000000"
 preserveAspectRatio="xMidYMid meet">

<g transform="translate(0.000000,120.000000) scale(0.100000,-0.100000)"
fill="#000000" stroke="none">
<path d="M10 600 l0 -590 1250 0 1250 0 0 590 0 590 -1250 0 -1250 0 0 -590z
m1901 530 c19 -5 48 -23 63 -39 l28 -29 -32 -17 c-29 -15 -33 -15 -49 -1 -24
22 -66 20 -88 -3 -16 -18 -21 -18 -51 -5 -27 11 -31 17 -23 31 14 28 46 53 77
63 39 11 34 11 75 0z m130 -211 c193 -103 233 -352 84 -517 -20 -23 -62 -54
-93 -69 -77 -38 -201 -40 -277 -5 -63 29 -129 93 -162 157 -38 73 -43 179 -13
259 26 68 94 148 152 177 97 49 214 49 309 -2z m-1081 -144 c0 -37 27 -95 58
-128 110 -116 305 -81 366 65 9 21 16 49 16 63 0 24 3 25 55 25 65 0 66 -3 35
-103 -40 -129 -147 -211 -296 -226 -88 -9 -125 -24 -172 -72 -44 -46 -66 -106
-60 -171 3 -29 9 -61 13 -70 6 -16 1 -18 -48 -18 -60 0 -58 -1 -72 67 -8 40
11 146 35 192 20 40 53 78 89 104 l25 17 -40 34 c-22 18 -52 56 -66 83 -29 52
-52 138 -43 154 4 5 28 9 56 9 46 0 49 -2 49 -25z m158 -542 c2 -8 -6 -13 -22
-13 -16 0 -26 -6 -26 -15 0 -9 10 -15 26 -15 14 0 23 -4 19 -10 -3 -5 -15 -10
-26 -10 -10 0 -19 -7 -19 -15 0 -8 -4 -15 -9 -15 -9 0 -22 90 -14 103 8 12 66
4 71 -10z m42 -38 c0 -30 -4 -55 -10 -55 -11 0 -14 93 -3 103 12 12 13 8 13
-48z m118 38 c2 -8 -5 -13 -17 -13 -18 0 -21 -6 -21 -40 0 -22 -4 -40 -10 -40
-5 0 -10 18 -10 40 0 29 -4 40 -15 40 -8 0 -15 7 -15 16 0 12 9 14 42 12 23
-2 43 -9 46 -15z m112 -40 l0 -57 -28 27 c-35 33 -42 34 -42 2 0 -14 -4 -25
-10 -25 -5 0 -10 23 -10 50 0 28 3 50 7 50 4 0 20 -12 35 -27 l28 -27 0 32 c0
18 5 32 10 32 6 0 10 -26 10 -57z m95 42 c0 -5 -10 -11 -22 -13 -28 -4 -30
-22 -3 -22 11 0 20 -4 20 -10 0 -5 -11 -10 -25 -10 -14 0 -25 -4 -25 -10 0 -5
11 -10 25 -10 14 0 25 -4 25 -10 0 -5 -16 -10 -35 -10 l-35 0 0 48 c0 27 3 52
7 56 11 10 68 3 68 -9z m113 -2 c2 -9 -8 -13 -33 -13 -21 0 -34 -4 -30 -10 3
-5 17 -10 30 -10 27 0 41 -26 24 -46 -13 -16 -79 -19 -79 -4 0 6 16 10 35 10
41 0 47 17 9 22 -61 7 -52 72 9 66 17 -2 32 -9 35 -15z m112 2 c0 -10 -10 -15
-30 -15 -38 0 -40 -18 -2 -22 21 -2 27 -8 27 -28 0 -22 -5 -25 -42 -28 -26 -2
-43 1 -43 7 0 6 16 11 35 11 41 0 47 17 9 22 -38 4 -55 35 -30 54 27 19 76 19
76 -1z m370 -41 l0 -56 -32 28 -33 27 -3 -26 c-6 -47 -22 -29 -22 24 0 54 4
55 48 16 l22 -20 0 31 c0 18 5 32 10 32 6 0 10 -25 10 -56z m110 41 c0 -8 -7
-15 -15 -15 -11 0 -15 -11 -15 -40 0 -22 -4 -40 -10 -40 -5 0 -10 18 -10 40 0
33 -3 40 -20 40 -20 0 -26 11 -13 23 3 4 24 7 45 7 27 0 38 -4 38 -15z m98 -2
c2 -8 -6 -13 -22 -13 -14 0 -26 -4 -26 -10 0 -5 11 -10 25 -10 14 0 25 -4 25
-10 0 -5 -11 -10 -25 -10 -14 0 -25 -4 -25 -10 0 -5 11 -10 25 -10 14 0 25 -4
25 -10 0 -5 -16 -10 -35 -10 l-35 0 0 56 0 55 32 -3 c17 -2 33 -9 36 -15z m93
7 c20 -11 26 -45 9 -55 -7 -4 -7 -13 0 -26 13 -23 -2 -26 -20 -4 -7 8 -19 15
-26 15 -8 0 -14 -7 -14 -15 0 -8 -4 -15 -10 -15 -11 0 -14 93 -3 103 10 10 42
8 64 -3z m-519 -15 c-2 -5 -13 -9 -26 -7 -15 2 -26 -3 -30 -14 -8 -21 12 -46
33 -42 9 1 17 -2 19 -7 5 -17 -45 -17 -62 0 -19 19 -21 56 -4 73 15 15 74 12
70 -3z m103 5 c-3 -5 -15 -10 -26 -10 -10 0 -19 -4 -19 -10 0 -5 12 -10 26
-10 14 0 23 -4 19 -10 -3 -5 -15 -10 -26 -10 -10 0 -19 -4 -19 -10 0 -5 11
-10 25 -10 14 0 25 -4 25 -10 0 -5 -18 -10 -40 -10 l-40 0 0 50 0 50 41 0 c24
0 38 -4 34 -10z"/>
<path d="M1828 840 c-48 -14 -94 -49 -124 -92 -26 -37 -29 -50 -29 -118 0 -67
4 -82 28 -118 54 -82 150 -118 247 -92 67 18 134 91 150 162 36 161 -116 305
-272 258z"/>
<path d="M2333 208 c2 -7 12 -13 22 -13 10 0 20 6 23 13 2 7 -6 12 -23 12 -17
0 -25 -5 -22 -12z"/>
</g>
</svg>
