<?xml version="1.0" standalone="no"?>
<!DOCTYPE svg PUBLIC "-//W3C//DTD SVG 20010904//EN"
 "http://www.w3.org/TR/2001/REC-SVG-20010904/DTD/svg10.dtd">
<svg version="1.0" xmlns="http://www.w3.org/2000/svg"
 width="254.000000pt" height="120.000000pt" viewBox="0 0 254.000000 120.000000"
 preserveAspectRatio="xMidYMid meet">
<metadata>
Created by potrace 1.14, written by Peter Selinger 2001-2017
</metadata>
<g transform="translate(0.000000,120.000000) scale(0.100000,-0.100000)"
fill="#000000" stroke="none">
<path d="M70 1056 c0 -56 3 -66 20 -71 11 -3 20 -10 20 -15 0 -5 20 -23 45
-40 64 -44 89 -97 89 -185 1 -81 -13 -115 -79 -195 -49 -59 -79 -127 -90 -203
-6 -39 -5 -47 9 -47 9 0 25 -9 36 -20 23 -23 58 -26 83 -7 9 6 26 39 38 71 82
224 379 230 430 10 6 -28 19 -55 29 -60 71 -39 71 -39 98 -23 23 13 27 21 26
60 -2 54 -40 143 -83 191 -32 36 -42 90 -20 104 24 14 88 127 99 175 11 45 10
55 -6 90 -19 38 -20 39 -76 39 -50 0 -58 -3 -58 -18 0 -37 -32 -111 -65 -149
-41 -48 -121 -85 -173 -81 l-37 3 -7 73 c-5 45 -18 94 -35 130 -46 98 -169
202 -265 226 l-28 6 0 -64z"/>
<path d="M1828 840 c-48 -14 -94 -49 -124 -91 -56 -81 -41 -211 32 -280 l26
-24 -27 52 c-49 93 -30 191 49 260 72 64 173 70 254 14 l47 -32 -46 45 c-62
59 -135 79 -211 56z"/>
<path d="M2152 825 c67 -80 83 -226 36 -326 -35 -76 -88 -133 -156 -166 -49
-24 -69 -28 -142 -28 -99 0 -160 23 -225 83 -37 34 -36 33 5 -11 26 -28 72
-62 110 -80 55 -27 75 -32 140 -32 65 0 84 5 142 33 73 36 124 87 160 161 19
37 23 63 23 136 0 78 -4 98 -27 146 -15 30 -40 66 -55 80 -19 16 -22 17 -11 4z"/>
<path d="M1500 718 c-17 -61 -36 -94 -83 -145 -58 -63 -122 -93 -222 -103 -97
-10 -128 -24 -177 -78 -56 -62 -71 -138 -43 -229 7 -21 4 -23 -34 -23 -47 0
-54 -15 -15 -32 21 -10 31 -9 52 3 25 14 27 19 27 89 0 87 21 138 76 181 33
27 64 37 183 58 77 14 136 43 185 92 73 73 113 188 77 219 -12 9 -17 4 -26
-32z"/>
</g>
</svg>
